<svg width="40" height="40" viewBox="0 0 40 40" fill="none" xmlns="http://www.w3.org/2000/svg">
<g clip-path="url(#clip0_5_82)">
<path d="M10.8333 0C9.28624 0 7.80251 0.614581 6.70854 1.70854C5.61458 2.80251 5 4.28624 5 5.83333V34.1667C5 35.7138 5.61458 37.1975 6.70854 38.2915C7.80251 39.3854 9.28624 40 10.8333 40C12.3804 40 13.8642 39.3854 14.9581 38.2915C16.0521 37.1975 16.6667 35.7138 16.6667 34.1667V5.83333C16.6667 4.28624 16.0521 2.80251 14.9581 1.70854C13.8642 0.614581 12.3804 0 10.8333 0Z" fill="#374957"/>
<path d="M29.1669 0C27.6198 0 26.1361 0.614581 25.0421 1.70854C23.9482 2.80251 23.3336 4.28624 23.3336 5.83333V34.1667C23.3336 35.7138 23.9482 37.1975 25.0421 38.2915C26.1361 39.3854 27.6198 40 29.1669 40C30.714 40 32.1977 39.3854 33.2917 38.2915C34.3857 37.1975 35.0003 35.7138 35.0003 34.1667V5.83333C35.0003 4.28624 34.3857 2.80251 33.2917 1.70854C32.1977 0.614581 30.714 0 29.1669 0Z" fill="#374957"/>
</g>
<defs>
<clipPath id="clip0_5_82">
<rect width="40" height="40" fill="white"/>
</clipPath>
</defs>
</svg>
