<svg width="40" height="40" viewBox="0 0 40 40" fill="none" xmlns="http://www.w3.org/2000/svg">
<g clip-path="url(#clip0_5_86)">
<path d="M34.1533 13.2825L18.2566 1.62579C17.015 0.716594 15.5459 0.168973 14.0121 0.0436238C12.4783 -0.0817253 10.9397 0.220094 9.56696 0.915626C8.19419 1.61116 7.04083 2.67323 6.23472 3.98413C5.42861 5.29503 5.00124 6.80354 4.99998 8.34245V31.6675C4.99759 33.2079 5.42272 34.7187 6.22806 36.0319C7.0334 37.345 8.18736 38.4089 9.56147 39.1051C10.9356 39.8013 12.4759 40.1026 14.0111 39.9753C15.5463 39.848 17.016 39.2972 18.2566 38.3841L34.1533 26.7275C35.2081 25.9534 36.0658 24.9418 36.657 23.7746C37.2482 22.6075 37.5563 21.3175 37.5563 20.0091C37.5563 18.7008 37.2482 17.4108 36.657 16.2436C36.0658 15.0764 35.2081 14.0649 34.1533 13.2908V13.2825Z" fill="#374957"/>
</g>
<defs>
<clipPath id="clip0_5_86">
<rect width="40" height="40" fill="white"/>
</clipPath>
</defs>
</svg>
